# xmcd CD database file
#
# Track frame offsets:
#	150
#	34473
#	62116
#	90486
#	117575
#	147718
#	171630
#	203296
#	232388
#	271803
#
# Disc length: 4099 seconds
#
# Revision: 0
# Processed by: cddbd v1.5.2PL0 Copyright (c) Steve Scherf et al.
# Submitted via: CDex 1.70beta2
#
DISCID=9c10010a
DTITLE=Joe Cohn - Fuego
DYEAR=2011
DGENRE=Jazz
TTITLE0=Little Melonae
TTITLE1=She
TTITLE2=Bluish Grey 
TTITLE3=Dewey Square
TTITLE4=The Underdog
TTITLE5=Fuego De Roberto
TTITLE6=Love For Sale
TTITLE7=Call It Wachawana
TTITLE8=Clockwise
TTITLE9=Lady Luck
EXTD=YEAR: 2011
EXTT0=
EXTT1=
EXTT2=
EXTT3=
EXTT4=
EXTT5=
EXTT6=
EXTT7=
EXTT8=
EXTT9=
PLAYORDER=
